<svg width="1182" height="385" viewBox="0 0 1182 385" fill="none" xmlns="http://www.w3.org/2000/svg">
<g clip-path="url(#clip0_168_3)">
<path opacity="0.05" d="M0.463778 386V95.0909H61.9695V335.29H186.685V386H0.463778ZM284.981 386H219.072L319.498 95.0909H398.759L499.043 386H433.134L360.265 161.568H357.992L284.981 386ZM280.862 271.653H436.543V319.665H280.862V271.653ZM685.229 178.756C684.093 167.297 679.216 158.396 670.599 152.051C661.981 145.706 650.286 142.534 635.513 142.534C625.476 142.534 617 143.955 610.087 146.795C603.174 149.542 597.871 153.377 594.178 158.301C590.58 163.225 588.781 168.812 588.781 175.062C588.591 180.271 589.68 184.816 592.048 188.699C594.51 192.581 597.871 195.943 602.133 198.784C606.394 201.53 611.318 203.945 616.906 206.028C622.493 208.017 628.459 209.722 634.803 211.142L660.94 217.392C673.629 220.233 685.277 224.021 695.883 228.756C706.489 233.491 715.674 239.314 723.44 246.227C731.205 253.14 737.218 261.284 741.479 270.659C745.835 280.034 748.061 290.782 748.156 302.903C748.061 320.706 743.515 336.142 734.519 349.21C725.618 362.184 712.739 372.269 695.883 379.466C679.121 386.568 658.904 390.119 635.229 390.119C611.745 390.119 591.29 386.521 573.866 379.324C556.536 372.127 542.995 361.473 533.241 347.364C523.582 333.159 518.515 315.593 518.042 294.665H577.559C578.222 304.419 581.015 312.562 585.94 319.097C590.959 325.536 597.635 330.413 605.968 333.727C614.396 336.947 623.913 338.557 634.519 338.557C644.936 338.557 653.979 337.042 661.65 334.011C669.415 330.981 675.428 326.767 679.69 321.369C683.951 315.972 686.082 309.769 686.082 302.761C686.082 296.227 684.14 290.735 680.258 286.284C676.47 281.833 670.883 278.045 663.496 274.92C656.205 271.795 647.256 268.955 636.65 266.398L604.974 258.443C580.447 252.477 561.082 243.15 546.877 230.46C532.673 217.771 525.618 200.678 525.712 179.182C525.618 161.568 530.305 146.18 539.775 133.017C549.339 119.854 562.455 109.58 579.121 102.193C595.788 94.8068 614.728 91.1136 635.94 91.1136C657.531 91.1136 676.375 94.8068 692.474 102.193C708.667 109.58 721.262 119.854 730.258 133.017C739.254 146.18 743.894 161.426 744.178 178.756H685.229ZM789.526 386V95.0909H851.032V215.119H975.89V95.0909H1037.25V386H975.89V265.83H851.032V386H789.526ZM1122.2 389.693C1112.82 389.693 1104.77 386.379 1098.05 379.75C1091.42 373.027 1088.11 364.977 1088.11 355.602C1088.11 346.322 1091.42 338.367 1098.05 331.739C1104.77 325.11 1112.82 321.795 1122.2 321.795C1131.29 321.795 1139.24 325.11 1146.06 331.739C1152.88 338.367 1156.29 346.322 1156.29 355.602C1156.29 361.852 1154.68 367.581 1151.46 372.79C1148.33 377.903 1144.21 382.023 1139.1 385.148C1133.99 388.178 1128.35 389.693 1122.2 389.693Z" fill="#DEDEDE"/>
</g>
<defs>
<clipPath id="clip0_168_3">
<rect width="1182" height="386" fill="white"/>
</clipPath>
</defs>
</svg>
