<svg width="49" height="46" viewBox="0 0 49 46" fill="none" xmlns="http://www.w3.org/2000/svg">
<path d="M5.67 5.91984C8.37721 3.21061 11.8984 1.46431 15.6936 0.948812C19.4887 0.433315 23.3482 1.17709 26.68 3.06604C30.0118 4.95499 32.6319 7.88481 34.1384 11.4061C35.6449 14.9274 35.9546 18.8456 35.02 22.5598L34.8475 23.1998L43.3475 34.1298C44.0631 35.0498 44.5283 36.1393 44.6979 37.2924C44.8674 38.4455 44.7355 39.6229 44.315 40.7098C44.565 40.7848 44.87 40.8248 45.245 40.7498L45.54 40.6723C46.1644 40.4796 46.8394 40.539 47.4205 40.8378C48.0017 41.1365 48.4427 41.651 48.6492 42.2709C48.8558 42.8909 48.8114 43.567 48.5256 44.1546C48.2397 44.7423 47.7352 45.1946 47.12 45.4148C46.0596 45.7803 44.9263 45.8827 43.8176 45.7133C42.7089 45.5439 41.6579 45.1078 40.755 44.4423C39.7179 44.9011 38.582 45.0912 37.4521 44.9951C36.3222 44.8989 35.2347 44.5197 34.29 43.8923L33.88 43.5998L22.95 35.0973C19.2197 36.1866 15.233 36.0033 11.6185 34.5763C8.00392 33.1493 4.96716 30.5598 2.98701 27.2161C1.00686 23.8724 0.195979 19.9647 0.682222 16.1092C1.16846 12.2537 2.92417 8.6697 5.6725 5.92234L5.67 5.91984ZM32.4425 28.2498C31.2418 29.9865 29.7367 31.4916 28 32.6923L36.95 39.6523C37.2871 39.9068 37.7048 40.0308 38.1261 40.0014C38.5475 39.972 38.9439 39.7912 39.2424 39.4924C39.5409 39.1936 39.7213 38.797 39.7502 38.3756C39.7792 37.9543 39.6548 37.5367 39.4 37.1998L32.4425 28.2498ZM28.3 11.1473L27.7925 11.9873C25.7762 15.2356 23.3939 18.2419 20.6925 20.9473C17.9878 23.6478 14.9823 26.0291 11.735 28.0448L10.895 28.5523C13.3026 30.2294 16.2233 31.0062 19.1459 30.7469C22.0685 30.4876 24.8069 29.2086 26.8816 27.1339C28.9563 25.0592 30.2353 22.3209 30.4946 19.3983C30.7539 16.4757 29.977 13.5549 28.3 11.1473ZM24.555 7.62234C22.161 6.16411 19.3465 5.55251 16.5633 5.88571C13.78 6.2189 11.1895 7.47757 9.20735 9.45968C7.22524 11.4418 5.96657 14.0324 5.63337 16.8156C5.30018 19.5989 5.91177 22.4134 7.37 24.8073L8.18 24.3498C11.4541 22.4255 14.4714 20.0945 17.16 17.4123C19.5874 14.979 21.728 12.2755 23.54 9.35484L23.83 8.87984L24.3375 8.01234L24.555 7.62234Z" fill="#DEDEDE"/>
</svg>
