<svg width="31" height="30" viewBox="0 0 31 30" fill="none" xmlns="http://www.w3.org/2000/svg">
<path d="M1.57143 26.7856V3.21415C1.57143 2.64583 1.79719 2.10078 2.19905 1.69892C2.60092 1.29705 3.14596 1.07129 3.71428 1.07129H27.2857C27.854 1.07129 28.3991 1.29705 28.8009 1.69892C29.2028 2.10078 29.4286 2.64583 29.4286 3.21415V26.7856C29.4286 27.3539 29.2028 27.8989 28.8009 28.3008C28.3991 28.7027 27.854 28.9284 27.2857 28.9284H20.8571V18.7713H22.3786C22.7252 18.7713 23.0577 18.6336 23.3029 18.3884C23.548 18.1433 23.6857 17.8108 23.6857 17.4641V15.8141C23.6851 15.4676 23.5472 15.1355 23.3022 14.8905C23.0572 14.6455 22.7251 14.5076 22.3786 14.507H20.9429V12.4927C20.9429 10.6927 21.7571 10.6927 22.5714 10.6927H23.6214C23.7939 10.6998 23.9658 10.669 24.125 10.6023C24.2842 10.5357 24.4269 10.4348 24.5429 10.307C24.6674 10.1885 24.766 10.0453 24.8324 9.88675C24.8988 9.72814 24.9315 9.55749 24.9286 9.38558V7.79986C24.9349 7.62523 24.9065 7.45108 24.8452 7.28744C24.7839 7.12381 24.6908 6.97393 24.5713 6.84645C24.4517 6.71896 24.3082 6.61639 24.1488 6.54465C23.9895 6.47291 23.8175 6.43341 23.6429 6.42843H21.1786C20.4595 6.4014 19.7432 6.53078 19.079 6.80763C18.4149 7.08447 17.8187 7.5022 17.3318 8.03194C16.8448 8.56168 16.4787 9.19081 16.2586 9.87589C16.0385 10.561 15.9698 11.2856 16.0571 11.9999V14.507H14.6857C14.5123 14.5042 14.34 14.5359 14.1789 14.6003C14.0178 14.6647 13.8712 14.7605 13.7475 14.8822C13.6239 15.0039 13.5257 15.1489 13.4587 15.3089C13.3916 15.4689 13.3571 15.6407 13.3571 15.8141V17.4641C13.3571 17.6376 13.3916 17.8094 13.4587 17.9694C13.5257 18.1294 13.6239 18.2744 13.7475 18.3961C13.8712 18.5178 14.0178 18.6136 14.1789 18.678C14.34 18.7424 14.5123 18.7741 14.6857 18.7713H16.0571V28.9284H3.71428C3.14596 28.9284 2.60092 28.7027 2.19905 28.3008C1.79719 27.8989 1.57143 27.3539 1.57143 26.7856Z" stroke="#DEDEDE" stroke-width="2" stroke-linecap="round" stroke-linejoin="round"/>
</svg>
