<svg width="27" height="28" viewBox="0 0 27 28" fill="none" xmlns="http://www.w3.org/2000/svg">
<path d="M13.5 26.5C20.4036 26.5 26 20.9036 26 14C26 7.09644 20.4036 1.5 13.5 1.5C6.59644 1.5 1 7.09644 1 14C1 20.9036 6.59644 26.5 13.5 26.5Z" stroke="#DEDEDE" stroke-width="2" stroke-linecap="round" stroke-linejoin="round"/>
<path d="M7.875 14.0863C9.25 13.6238 10.72 13.375 12.25 13.375C14.78 13.375 17.15 14.0587 19.1862 15.25M21 11.5C18.6875 9.9225 15.89 9 12.875 9C10.8787 9 8.9775 9.405 7.25 10.135M17.4112 19C14.9056 17.7122 12.0092 17.4068 9.29 18.1437" stroke="#DEDEDE" stroke-width="2" stroke-linecap="round" stroke-linejoin="round"/>
</svg>
