<svg width="31" height="30" viewBox="0 0 31 30" fill="none" xmlns="http://www.w3.org/2000/svg">
<path d="M15.5 5C16.5688 5 17.665 5.0275 18.7275 5.0725L19.9825 5.1325L21.1838 5.20375L22.3088 5.28L23.3362 5.36C24.4515 5.44486 25.501 5.92054 26.2999 6.70325C27.0989 7.48596 27.596 8.52549 27.7038 9.63875L27.7537 10.17L27.8475 11.3075C27.935 12.4862 28 13.7712 28 15C28 16.2288 27.935 17.5138 27.8475 18.6925L27.7537 19.83L27.7038 20.3612C27.596 21.4747 27.0987 22.5144 26.2995 23.2971C25.5003 24.0799 24.4505 24.5554 23.335 24.64L22.31 24.7188L21.185 24.7962L19.9825 24.8675L18.7275 24.9275C17.6523 24.9741 16.5762 24.9982 15.5 25C14.4238 24.9982 13.3477 24.9741 12.2725 24.9275L11.0175 24.8675L9.81625 24.7962L8.69125 24.7188L7.66375 24.64C6.54852 24.5551 5.499 24.0795 4.70006 23.2967C3.90111 22.514 3.40399 21.4745 3.29625 20.3612L3.24625 19.83L3.1525 18.6925C3.05729 17.4639 3.00642 16.2323 3 15C3 13.7712 3.065 12.4862 3.1525 11.3075L3.24625 10.17L3.29625 9.63875C3.40395 8.52569 3.90089 7.48632 4.69958 6.70363C5.49827 5.92095 6.54749 5.44515 7.6625 5.36L8.68875 5.28L9.81375 5.20375L11.0163 5.1325L12.2712 5.0725C13.3469 5.02591 14.4234 5.00174 15.5 5ZM15.5 7.5C14.4688 7.5 13.4075 7.5275 12.375 7.57L11.1525 7.62875L9.97875 7.6975L8.87625 7.7725L7.86625 7.85125C7.33524 7.88842 6.83461 8.11266 6.45333 8.4841C6.07204 8.85555 5.83479 9.35015 5.78375 9.88C5.6375 11.3912 5.5 13.2725 5.5 15C5.5 16.7275 5.6375 18.6088 5.78375 20.12C5.89 21.21 6.755 22.0575 7.86625 22.1488L8.87625 22.2262L9.97875 22.3013L11.1525 22.3713L12.375 22.43C13.4075 22.4725 14.4688 22.5 15.5 22.5C16.5312 22.5 17.5925 22.4725 18.625 22.43L19.8475 22.3713L21.0212 22.3025L22.1237 22.2275L23.1338 22.1488C23.6648 22.1116 24.1654 21.8873 24.5467 21.5159C24.928 21.1445 25.1652 20.6499 25.2163 20.12C25.3625 18.6088 25.5 16.7275 25.5 15C25.5 13.2725 25.3625 11.3912 25.2163 9.88C25.1652 9.35015 24.928 8.85555 24.5467 8.4841C24.1654 8.11266 23.6648 7.88842 23.1338 7.85125L22.1237 7.77375L21.0212 7.69875L19.8475 7.62875L18.625 7.57C17.5839 7.52532 16.542 7.50198 15.5 7.5ZM13 11.9688C12.9999 11.8466 13.0297 11.7262 13.0867 11.6182C13.1437 11.5101 13.2263 11.4177 13.3272 11.3488C13.4281 11.2799 13.5443 11.2367 13.6657 11.223C13.7871 11.2093 13.91 11.2254 14.0238 11.27L14.125 11.32L19.375 14.35C19.4795 14.4103 19.568 14.495 19.6328 14.5968C19.6976 14.6986 19.7369 14.8146 19.7474 14.9348C19.7578 15.0551 19.739 15.176 19.6927 15.2875C19.6464 15.399 19.5738 15.4976 19.4813 15.575L19.375 15.65L14.125 18.6812C14.0192 18.7425 13.9 18.777 13.7779 18.7817C13.6557 18.7863 13.5342 18.7611 13.4241 18.7081C13.3139 18.6551 13.2183 18.576 13.1457 18.4776C13.0731 18.3793 13.0257 18.2646 13.0075 18.1438L13 18.0312V11.9688Z" fill="#DEDEDE"/>
</svg>
